<?xml version="1.0" standalone="no"?>
<!DOCTYPE svg PUBLIC "-//W3C//DTD SVG 20010904//EN"
 "http://www.w3.org/TR/2001/REC-SVG-20010904/DTD/svg10.dtd">
<svg version="1.0" xmlns="http://www.w3.org/2000/svg"
 width="300.000000pt" height="300.000000pt" viewBox="0 0 300.000000 300.000000"
 preserveAspectRatio="xMidYMid meet">
<metadata>
Created by potrace 1.10, written by Peter Selinger 2001-2011
</metadata>
<g transform="translate(0.000000,300.000000) scale(0.050000,-0.050000)"
fill="currentColor" stroke="none">
<path d="M2690 5048 c-899 -217 -1353 -1250 -892 -2027 610 -1027 2113 -901
2528 211 379 1019 -570 2073 -1636 1816z m628 -180 c615 -137 1023 -784 891
-1412 -196 -934 -1387 -1285 -2059 -606 -872 880 -56 2291 1168 2018z"/>
<path d="M2137 4330 c-11 -11 137 -456 371 -1120 l71 -200 118 -6 117 -6 62
176 c35 97 120 342 190 544 l127 368 187 -4 c221 -5 290 -34 334 -137 87 -209
-51 -344 -354 -345 l-130 -1 -93 -291 c-104 -322 -105 -314 56 -304 l97 6 60
177 60 178 110 7 c430 30 635 482 360 795 -105 120 -207 148 -568 156 l-317 7
-46 -150 c-25 -82 -87 -284 -137 -447 -51 -164 -92 -310 -92 -325 0 -59 -36
-24 -50 47 -18 99 -250 829 -271 855 -18 22 -243 39 -262 20z"/>
<path d="M4164 4976 c-42 -42 -27 -69 88 -156 117 -88 241 -259 299 -411 47
-122 149 -149 149 -39 0 210 -437 705 -536 606z"/>
<path d="M1333 3107 c-78 -79 314 -687 443 -687 74 0 100 88 39 135 -174 135
-276 274 -372 510 -21 52 -78 73 -110 42z"/>
<path d="M1548 2072 c7 -28 49 -154 94 -281 l82 -231 83 0 83 0 92 268 93 268
-53 11 c-73 14 -84 -3 -154 -232 l-62 -203 -69 219 c-69 217 -70 219 -136 225
-62 6 -65 4 -53 -44z"/>
<path d="M2243 2085 c-10 -19 -50 -129 -89 -245 -39 -115 -77 -226 -85 -245
-11 -29 -2 -35 57 -35 62 0 72 7 84 60 13 58 17 60 122 60 105 0 109 -2 121
-60 10 -51 147 -100 147 -53 0 13 -180 517 -191 535 -21 33 -146 20 -166 -17z
m155 -300 c1 -16 -25 -25 -68 -25 -81 0 -80 -2 -37 141 l33 109 35 -100 c20
-55 37 -111 37 -125z"/>
<path d="M2700 1840 l0 -280 57 0 57 0 -8 195 c-9 221 1 217 85 -31 80 -240
129 -232 221 36 l65 190 1 -195 2 -195 60 0 60 0 0 270 0 270 -70 3 c-38 2
-80 4 -93 5 -12 1 -46 -76 -75 -172 -68 -225 -68 -225 -122 -31 -55 195 -48
187 -155 203 l-85 12 0 -280z"/>
<path d="M3549 2092 c-136 -59 -185 -297 -90 -431 159 -223 490 -106 484 170
-6 239 -180 354 -394 261z m222 -121 c106 -106 46 -311 -91 -311 -92 0 -140
61 -140 179 0 160 129 234 231 132z"/>
<path d="M4146 2101 c-157 -67 -103 -251 94 -315 122 -40 156 -94 77 -123 -55
-21 -149 7 -165 48 -23 60 -118 35 -103 -26 44 -180 388 -177 422 3 19 100
-31 163 -153 194 -109 28 -149 61 -131 108 15 39 101 39 134 -1 28 -34 122
-32 133 3 27 83 -190 159 -308 109z"/>
<path d="M1559 1395 c0 -3 -2 -120 -5 -260 l-5 -255 65 0 65 0 -12 90 -12 90
103 0 c210 0 286 222 108 317 -36 19 -305 35 -307 18z m271 -165 c0 -56 -5
-60 -85 -66 l-85 -6 0 72 0 72 85 -6 c80 -6 85 -10 85 -66z"/>
<path d="M2060 1140 l0 -260 190 0 c189 0 190 0 190 50 0 48 -5 50 -130 50
l-130 0 0 210 0 210 -60 0 -60 0 0 -260z"/>
<path d="M2680 1394 c0 -3 -40 -120 -90 -260 l-89 -254 60 0 c50 0 65 11 82
60 19 55 28 60 117 60 89 0 98 -5 117 -60 17 -50 32 -60 84 -60 42 0 60 8 54
25 -5 14 -48 131 -95 260 l-85 235 -78 0 c-42 0 -77 -3 -77 -6z m107 -169 c7
-30 18 -75 25 -100 11 -41 6 -45 -58 -45 l-70 0 32 100 c36 113 54 124 71 45z"/>
<path d="M3004 1355 c147 -232 176 -294 176 -383 0 -89 2 -92 60 -92 59 0 60
1 60 111 0 92 12 129 67 216 125 195 124 193 44 193 -65 0 -74 -8 -126 -111
l-56 -110 -54 110 c-51 104 -59 111 -127 111 -70 0 -72 -1 -44 -45z"/>
<path d="M3580 1395 c-1 -3 -3 -120 -7 -260 l-6 -255 197 0 c196 0 196 0 196
50 0 49 -4 50 -141 50 l-142 0 7 55 c6 53 11 55 111 52 104 -2 105 -2 105 57
0 60 0 60 -105 53 -100 -7 -105 -5 -105 43 0 47 7 50 125 56 118 6 125 9 125
55 0 48 -2 49 -180 49 -99 0 -180 -2 -180 -5z"/>
<path d="M4060 1142 l0 -262 60 0 c59 0 60 2 60 101 0 96 2 101 45 88 54 -17
42 -3 93 -104 38 -75 51 -85 112 -85 l68 0 -62 101 -63 100 44 31 c33 23 43
51 43 116 0 128 -46 160 -242 169 l-158 7 0 -262z m281 126 c40 -48 -2 -97
-88 -104 -71 -6 -73 -5 -73 65 0 80 106 106 161 39z"/>
</g>
</svg>
